<svg width="20" height="19" viewBox="0 0 20 19" fill="none" xmlns="http://www.w3.org/2000/svg">
<circle cx="10.0171" cy="9.47259" r="8.85158" stroke="white" stroke-opacity="0.35"/>
<path d="M9.16528 13.0656C9.07969 13.1413 8.96672 13.1838 8.84914 13.1844C8.7931 13.1849 8.73754 13.1746 8.68588 13.1542C8.63423 13.1338 8.58758 13.1036 8.54881 13.0656L8.288 12.8206C8.24726 12.7836 8.21502 12.7392 8.19327 12.69C8.17152 12.6409 8.16072 12.588 8.16154 12.5348C8.16072 12.4816 8.17152 12.4288 8.19327 12.3796C8.21502 12.3305 8.24726 12.286 8.288 12.249L11.2439 9.47258L8.288 6.69616C8.24752 6.65975 8.21542 6.61593 8.19367 6.56741C8.17192 6.51889 8.16099 6.4667 8.16154 6.41406C8.16218 6.30362 8.20737 6.19751 8.288 6.11712L8.54881 5.87956C8.6344 5.80383 8.74737 5.76139 8.86495 5.76079C8.92099 5.76026 8.97656 5.77053 9.02821 5.79096C9.07986 5.81139 9.12651 5.84154 9.16528 5.87956L12.6744 9.18306C12.7166 9.21976 12.7499 9.26469 12.7717 9.31469C12.7935 9.3647 12.8035 9.41859 12.8009 9.47258C12.803 9.52652 12.7928 9.58025 12.771 9.63019C12.7492 9.68012 12.7162 9.7251 12.6744 9.7621L9.16528 13.0656Z" fill="white"/>
</svg>
