<svg width="12" height="20" viewBox="0 0 12 20" fill="none" xmlns="http://www.w3.org/2000/svg">
<path d="M9.20105 0.31999C9.41763 0.115957 9.7035 0.00160801 10.001 -9.55391e-06C10.1429 -0.00142202 10.2835 0.0262443 10.4142 0.0812816C10.5449 0.136319 10.663 0.217559 10.7611 0.31999L11.4211 0.97999C11.5241 1.07968 11.6057 1.19943 11.6608 1.33186C11.7158 1.46429 11.7431 1.60659 11.741 1.74999C11.7431 1.89339 11.7158 2.03569 11.6608 2.16812C11.6057 2.30055 11.5241 2.4203 11.4211 2.51999L3.94105 9.99999L11.4211 17.48C11.5235 17.5781 11.6047 17.6961 11.6598 17.8268C11.7148 17.9576 11.7425 18.0982 11.741 18.24C11.7394 18.5375 11.6251 18.8234 11.4211 19.04L10.7611 19.68C10.5445 19.884 10.2586 19.9984 9.96105 20C9.81923 20.0014 9.67862 19.9737 9.54791 19.9187C9.4172 19.8637 9.29915 19.7824 9.20105 19.68L0.32105 10.78C0.214135 10.6811 0.130104 10.5601 0.0748312 10.4254C0.0195585 10.2906 -0.00562168 10.1455 0.00105016 9.99999C-0.00429028 9.85468 0.0214993 9.70991 0.0766899 9.57538C0.13188 9.44085 0.215196 9.31968 0.32105 9.21999L9.20105 0.31999Z" fill="white"/>
</svg>
