<svg width="30" height="27" viewBox="0 0 30 27" fill="none" xmlns="http://www.w3.org/2000/svg">
<path d="M24.6433 11.2704V24.6704H19.5853V18.8764C19.5853 18.6324 19.4883 18.3984 19.3158 18.2258C19.1433 18.0533 18.9093 17.9564 18.6653 17.9564H12.1973C11.9533 17.9564 11.7193 18.0533 11.5467 18.2258C11.3742 18.3984 11.2773 18.6324 11.2773 18.8764V24.6704H6.24926V11.2704H4.41026V25.5844C4.41026 25.8284 4.50719 26.0624 4.67973 26.2349C4.85226 26.4074 5.08627 26.5044 5.33027 26.5044H12.1973C12.4413 26.5044 12.6753 26.4074 12.8478 26.2349C13.0203 26.0624 13.1173 25.8284 13.1173 25.5844V19.7904H17.7463V25.5844C17.7463 25.8284 17.8432 26.0624 18.0157 26.2349C18.1883 26.4074 18.4223 26.5044 18.6663 26.5044H25.5663C25.8103 26.5044 26.0443 26.4074 26.2168 26.2349C26.3893 26.0624 26.4863 25.8284 26.4863 25.5844V11.2704H24.6433Z" fill="#7000CF" stroke="white" stroke-width="0.4"/>
<path d="M29.4103 13.7254L16.0753 1.24837C15.9059 1.08983 15.6829 1.00112 15.4509 1.00001C15.219 0.998898 14.9951 1.08546 14.8243 1.24237L1.24627 13.7194C1.08856 13.889 1.00062 14.1118 1 14.3434C0.999387 14.575 1.08614 14.7983 1.24294 14.9687C1.39975 15.1392 1.61506 15.2442 1.84591 15.2629C2.07675 15.2815 2.30614 15.2124 2.48827 15.0694L15.4413 3.16937L28.1543 15.0694C28.3335 15.2293 28.5682 15.3128 28.8082 15.302C29.0481 15.2913 29.2744 15.187 29.4385 15.0116C29.6027 14.8363 29.6917 14.6036 29.6866 14.3635C29.6815 14.1233 29.5827 13.8946 29.4113 13.7264L29.4103 13.7254Z" fill="#7000CF" stroke="white" stroke-width="0.4"/>
</svg>
