<svg width="82" height="73" viewBox="0 0 82 73" fill="none" xmlns="http://www.w3.org/2000/svg">
<path opacity="0.30" d="M15.4259 71.7413C15.0686 72.1709 14.4297 72.2303 14.0091 71.8625C7.94119 66.5558 3.56612 59.5722 1.44266 51.7804C-0.769574 43.6629 -0.430914 35.0613 2.41269 27.1429C5.25629 19.2244 10.4672 12.3725 17.3382 7.5169C24.2092 2.66129 32.4077 0.0370873 40.8212 0.000390196C49.2346 -0.0363069 57.4557 2.51627 64.3688 7.31176C71.282 12.1073 76.5524 18.9134 79.4649 26.8068C82.3775 34.7001 82.7912 43.2984 80.6499 51.4349C78.5945 59.2449 74.2805 66.2665 68.2591 71.6258C67.8417 71.9973 67.2023 71.9435 66.8413 71.5171V71.5171C66.4802 71.0907 66.5342 70.4532 66.9511 70.0812C72.6558 64.9906 76.7434 58.3284 78.6931 50.9199C80.7287 43.185 80.3355 35.011 77.5666 27.5072C74.7978 20.0035 69.7875 13.5332 63.2155 8.97433C56.6436 4.41551 48.8282 1.9889 40.83 2.02379C32.8317 2.05867 25.0378 4.55336 18.5059 9.16934C11.974 13.7853 7.0203 20.2991 4.31703 27.8267C1.61377 35.3544 1.29182 43.5315 3.39487 51.2484C5.40916 58.6395 9.55463 65.2658 15.3036 70.3065C15.7237 70.6748 15.7833 71.3118 15.4259 71.7413V71.7413Z" fill="#6824BE"/>
</svg>