<svg width="30" height="30" viewBox="0 0 30 30" fill="none" xmlns="http://www.w3.org/2000/svg">
<path d="M11.691 8.35233L11.159 11.4523C11.1332 11.6044 11.1504 11.7607 11.2085 11.9035C11.2667 12.0464 11.3636 12.1702 11.4883 12.261C11.613 12.3519 11.7605 12.4061 11.9144 12.4176C12.0682 12.4291 12.2222 12.3975 12.359 12.3263L15.147 10.8603L17.935 12.3263C18.0536 12.3906 18.1861 12.4249 18.321 12.4263C18.4454 12.426 18.5682 12.3976 18.6802 12.3434C18.7922 12.2892 18.8906 12.2105 18.9681 12.1132C19.0456 12.0158 19.1002 11.9023 19.1279 11.781C19.1555 11.6597 19.1556 11.5337 19.128 11.4123L18.603 8.35233L20.859 6.15233C20.9698 6.04438 21.0481 5.90761 21.0852 5.75747C21.1223 5.60732 21.1166 5.4498 21.0689 5.3027C21.0211 5.1556 20.9332 5.02479 20.815 4.92505C20.6968 4.82532 20.553 4.76064 20.4 4.73833L17.283 4.28533L15.896 1.46233C15.8276 1.32356 15.7217 1.20671 15.5903 1.12501C15.4589 1.0433 15.3072 1 15.1525 1C14.9978 1 14.8461 1.0433 14.7148 1.12501C14.5834 1.20671 14.4774 1.32356 14.409 1.46233L13.015 4.28733L9.89601 4.74033C9.74297 4.76264 9.59922 4.82732 9.48102 4.92705C9.36281 5.02679 9.27488 5.1576 9.22713 5.3047C9.17938 5.4518 9.17372 5.60932 9.21081 5.75947C9.2479 5.90961 9.32626 6.04638 9.43701 6.15433L11.691 8.35233ZM13.682 5.86533C13.815 5.84592 13.9413 5.79445 14.05 5.71536C14.1588 5.63627 14.2466 5.53193 14.306 5.41133L15.15 3.70233L15.994 5.41133C16.0535 5.53187 16.1413 5.63617 16.25 5.71526C16.3587 5.79434 16.485 5.84584 16.618 5.86533L18.504 6.13933L17.139 7.46933C17.0428 7.56321 16.9709 7.67908 16.9294 7.80695C16.8879 7.93482 16.8782 8.07085 16.901 8.20333L17.223 10.0823L15.536 9.19533C15.4171 9.13287 15.2848 9.10024 15.1505 9.10024C15.0162 9.10024 14.8839 9.13287 14.765 9.19533L13.078 10.0823L13.396 8.20033C13.4188 8.06785 13.4091 7.93182 13.3676 7.80395C13.3262 7.67608 13.2542 7.56021 13.158 7.46633L11.796 6.13933L13.682 5.86533Z" fill="#7000CF" stroke="white" stroke-width="0.4"/>
<path d="M26.249 19.6483H22.7C22.2161 19.6479 21.7391 19.7634 21.309 19.9853V17.3693C21.3082 16.5609 20.9867 15.7859 20.4151 15.2142C19.8435 14.6426 19.0684 14.3211 18.26 14.3203H12.041C11.2327 14.3214 10.4578 14.643 9.8862 15.2145C9.31463 15.7861 8.99306 16.561 8.992 17.3693V17.7693C8.5619 17.5475 8.08493 17.432 7.601 17.4323H4.049C3.24129 17.4331 2.46683 17.7541 1.89532 18.3248C1.32381 18.8956 1.00185 19.6696 1 20.4773L1 28.4693C1 28.6892 1.08734 28.9001 1.24281 29.0555C1.39828 29.211 1.60914 29.2983 1.829 29.2983H28.469C28.6889 29.2983 28.8997 29.211 29.0552 29.0555C29.2107 28.9001 29.298 28.6892 29.298 28.4693V22.6973C29.2969 21.889 28.9754 21.1141 28.4038 20.5425C27.8322 19.971 27.0573 19.6494 26.249 19.6483ZM2.658 20.4773C2.65853 20.1086 2.80525 19.7551 3.066 19.4943C3.32675 19.2336 3.68025 19.0869 4.049 19.0863H7.6C7.96875 19.0869 8.32225 19.2336 8.583 19.4943C8.84375 19.7551 8.99047 20.1086 8.991 20.4773V27.6403H2.658V20.4773ZM10.65 20.4773V17.3693C10.6505 17.0006 10.7972 16.6471 11.058 16.3863C11.3187 16.1256 11.6722 15.9789 12.041 15.9783H18.257C18.6258 15.9786 18.9795 16.1252 19.2403 16.386C19.5011 16.6468 19.6477 17.0005 19.648 17.3693V27.6403H10.648L10.65 20.4773ZM27.64 27.6403H21.306V22.6973C21.3065 22.3286 21.4533 21.9751 21.714 21.7143C21.9747 21.4536 22.3282 21.3068 22.697 21.3063H26.249C26.6178 21.3068 26.9713 21.4536 27.232 21.7143C27.4927 21.9751 27.6395 22.3286 27.64 22.6973V27.6403Z" fill="#7000CF" stroke="white" stroke-width="0.4"/>
</svg>
