<svg width="30" height="30" viewBox="0 0 30 30" fill="none" xmlns="http://www.w3.org/2000/svg">
<path d="M29.0545 15.243C29.0545 17.0847 28.6918 18.9083 27.987 20.6098C27.2822 22.3112 26.2492 23.8572 24.947 25.1595C23.6447 26.4617 22.0987 27.4947 20.3973 28.1995C18.6958 28.9043 16.8722 29.267 15.0305 29.267C13.1773 29.265 11.3435 28.8898 9.63851 28.1637C7.93349 27.4377 6.39217 26.3757 5.1065 25.041C3.8279 23.736 2.80973 22.1992 2.1065 20.513C1.37864 18.7746 1.00469 16.9086 1.0065 15.024C0.99269 14.8718 1.01075 14.7184 1.05953 14.5735C1.1083 14.4287 1.18673 14.2956 1.2898 14.1828C1.39287 14.0699 1.51833 13.9798 1.65817 13.9181C1.79801 13.8565 1.94917 13.8246 2.102 13.8246C2.25483 13.8246 2.40599 13.8565 2.54583 13.9181C2.68567 13.9798 2.81113 14.0699 2.9142 14.1828C3.01727 14.2956 3.0957 14.4287 3.14447 14.5735C3.19325 14.7184 3.21131 14.8718 3.1975 15.024C3.1627 16.5906 3.43937 18.1485 4.01145 19.6073C4.58353 21.0661 5.43963 22.3967 6.53007 23.522C7.62052 24.6474 8.92359 25.5449 10.3637 26.1626C11.8038 26.7803 13.3522 27.1058 14.9191 27.1203C16.486 27.1348 18.0401 26.838 19.4914 26.2471C20.9427 25.6561 22.2621 24.7828 23.3732 23.6779C24.4843 22.573 25.3649 21.2584 25.9639 19.8104C26.5629 18.3625 26.8683 16.81 26.8625 15.243C26.8878 12.0769 25.6564 9.03006 23.4383 6.77071C21.2202 4.51136 18.1965 3.224 15.0305 3.191C13.4551 3.19992 11.898 3.52927 10.4539 4.15899C9.00987 4.78871 7.70901 5.70564 6.6305 6.854C6.42315 7.035 6.15548 7.13169 5.88033 7.12499C5.60518 7.11829 5.34254 7.00868 5.14425 6.8178C4.94596 6.62692 4.82643 6.36864 4.80926 6.09394C4.79209 5.81924 4.87853 5.54809 5.0515 5.334C6.32386 4.00459 7.84141 2.93391 9.5205 2.181C11.2529 1.40198 13.131 0.999453 15.0305 1C16.8838 1.00185 18.7178 1.37699 20.423 2.10306C22.1282 2.82912 23.6697 3.89122 24.9555 5.226C26.2341 6.53102 27.2523 8.06777 27.9555 9.754C28.683 11.4924 29.0566 13.3585 29.0545 15.243ZM4.2935 11.025H7.4155C7.56771 11.0388 7.72112 11.0208 7.86597 10.972C8.01081 10.9232 8.14389 10.8448 8.25674 10.7417C8.36959 10.6386 8.45972 10.5132 8.52138 10.3733C8.58305 10.2335 8.6149 10.0823 8.6149 9.9295C8.6149 9.77667 8.58305 9.62551 8.52138 9.48567C8.45972 9.34583 8.36959 9.22037 8.25674 9.1173C8.14389 9.01423 8.01081 8.9358 7.86597 8.88703C7.72112 8.83825 7.56771 8.82019 7.4155 8.834H4.2935C4.00176 8.834 3.72197 8.71811 3.51568 8.51182C3.30939 8.30553 3.1935 8.02574 3.1935 7.734V4.616C3.21027 4.46239 3.19449 4.30696 3.14719 4.15985C3.09988 4.01274 3.02211 3.87725 2.91895 3.76221C2.81578 3.64716 2.68953 3.55514 2.54843 3.49215C2.40732 3.42915 2.25453 3.39659 2.1 3.39659C1.94547 3.39659 1.79268 3.42915 1.65157 3.49215C1.51047 3.55514 1.38422 3.64716 1.28105 3.76221C1.17789 3.87725 1.10012 4.01274 1.05281 4.15985C1.00551 4.30696 0.989726 4.46239 1.0065 4.616V7.738C1.00756 8.60944 1.35421 9.44489 1.97041 10.0611C2.58661 10.6773 3.42206 11.0239 4.2935 11.025ZM12.4125 19.811C11.9919 19.5755 11.642 19.2317 11.3991 18.8153C11.1563 18.3989 11.0293 17.925 11.0315 17.443V12.5C11.0338 12.0163 11.164 11.5419 11.4089 11.1248C11.6537 10.7077 12.0046 10.3628 12.4258 10.1251C12.847 9.8874 13.3236 9.76533 13.8072 9.77128C14.2908 9.77723 14.7643 9.91099 15.1795 10.159L19.3385 12.633C19.745 12.8738 20.0817 13.2163 20.3156 13.6268C20.5496 14.0372 20.6726 14.5016 20.6726 14.974C20.6726 15.4464 20.5496 15.9108 20.3156 16.3212C20.0817 16.7317 19.745 17.0742 19.3385 17.315L15.1795 19.789C14.7628 20.0404 14.2863 20.1756 13.7997 20.1803C13.313 20.1851 12.834 20.0593 12.4125 19.816V19.811ZM13.2225 17.443C13.2213 17.5378 13.2461 17.631 13.2942 17.7127C13.3424 17.7943 13.412 17.8612 13.4955 17.906C13.5812 17.9562 13.6789 17.9822 13.7782 17.9813C13.8775 17.9804 13.9747 17.9527 14.0595 17.901L18.2185 15.427C18.2986 15.3805 18.3651 15.3137 18.4114 15.2335C18.4576 15.1532 18.4819 15.0621 18.4819 14.9695C18.4819 14.8769 18.4576 14.7858 18.4114 14.7055C18.3651 14.6253 18.2986 14.5585 18.2185 14.512L14.0595 12.038C13.9743 11.9856 13.8765 11.9576 13.7765 11.957C13.6779 11.958 13.5812 11.9842 13.4955 12.033C13.412 12.0778 13.3424 12.1447 13.2942 12.2263C13.2461 12.308 13.2213 12.4012 13.2225 12.496V17.443Z" fill="#7000CF" stroke="white" stroke-width="0.7"/>
</svg>