<svg width="29" height="19" viewBox="0 0 29 19" fill="none" xmlns="http://www.w3.org/2000/svg">
<path d="M28.5158 9.286C28.2688 8.948 22.3738 1 14.8458 1C7.31784 1 1.42284 8.948 1.17584 9.286C1.06158 9.44249 1 9.63124 1 9.825C1 10.0188 1.06158 10.2075 1.17584 10.364C1.42284 10.702 7.31784 18.65 14.8458 18.65C22.3738 18.65 28.2688 10.702 28.5158 10.364C28.6303 10.2076 28.6919 10.0188 28.6919 9.825C28.6919 9.6312 28.6303 9.44243 28.5158 9.286V9.286ZM14.8458 16.824C9.30084 16.824 4.49784 11.549 3.07584 9.824C4.49584 8.098 9.28884 2.824 14.8458 2.824C20.4028 2.824 25.1938 8.098 26.6158 9.824C25.1998 11.551 20.3998 16.824 14.8458 16.824V16.824Z" fill="#7000CF" stroke="white" stroke-width="0.3"/>
<path d="M14.8458 4.34701C13.7624 4.34701 12.7033 4.66828 11.8024 5.27021C10.9016 5.87214 10.1995 6.72769 9.78484 7.72866C9.37022 8.72963 9.26173 9.83107 9.4731 10.8937C9.68447 11.9563 10.2062 12.9324 10.9723 13.6985C11.7384 14.4647 12.7145 14.9864 13.7771 15.1977C14.8398 15.4091 15.9412 15.3006 16.9422 14.886C17.9432 14.4714 18.7987 13.7693 19.4006 12.8684C20.0026 11.9676 20.3238 10.9085 20.3238 9.825C20.3223 8.37264 19.7446 6.9802 18.7176 5.95322C17.6906 4.92624 16.2982 4.3486 14.8458 4.34701V4.34701ZM14.8458 13.476C14.1235 13.476 13.4175 13.2618 12.8169 12.8605C12.2163 12.4592 11.7482 11.8889 11.4718 11.2216C11.1954 10.5542 11.1231 9.81995 11.264 9.11153C11.4049 8.40312 11.7528 7.75239 12.2635 7.24165C12.7742 6.7309 13.425 6.38309 14.1334 6.24218C14.8418 6.10127 15.5761 6.17358 16.2434 6.44999C16.9107 6.7264 17.4811 7.19448 17.8824 7.79505C18.2837 8.39562 18.4979 9.1017 18.4979 9.824C18.4968 10.7922 18.1117 11.7205 17.427 12.4052C16.7424 13.0898 15.8141 13.4749 14.8458 13.476Z" fill="#7000CF" stroke="white" stroke-width="0.3"/>
</svg>