<svg width="25" height="24" viewBox="0 0 25 24" fill="none" xmlns="http://www.w3.org/2000/svg">
<path d="M5.48045 11.3855C4.50671 11.4005 3.54585 11.1617 2.69245 10.6925C1.86869 10.2321 1.18881 9.55226 0.728453 8.72849C0.222578 7.79259 -0.0278238 6.73994 0.00245352 5.67649C-0.0254827 4.62348 0.224948 3.58175 0.728453 2.6565C1.19203 1.82998 1.87797 1.14993 2.70845 0.693494C3.56694 0.226252 4.53114 -0.0123877 5.50845 0.000495286C6.4714 -0.0117943 7.42093 0.227052 8.26345 0.693494C9.08892 1.15284 9.77059 1.83243 10.2325 2.6565C10.736 3.58175 10.9864 4.62348 10.9585 5.67649C10.9887 6.73994 10.7383 7.79259 10.2325 8.72849C9.7721 9.55226 9.09221 10.2321 8.26845 10.6925C7.41506 11.1617 6.45419 11.4005 5.48045 11.3855V11.3855ZM3.83145 23.4635L17.0625 0.363494H20.4955L7.29545 23.4635H3.83145ZM5.48145 8.87749C5.82651 8.87891 6.168 8.8076 6.48366 8.66821C6.79931 8.52881 7.08206 8.32447 7.31345 8.06849C7.87445 7.40308 8.15264 6.54447 8.08845 5.67649C8.15237 4.81093 7.88056 3.95399 7.32945 3.28349C7.09686 3.02481 6.81162 2.81888 6.49289 2.67952C6.17415 2.54016 5.82929 2.4706 5.48145 2.47549C5.13427 2.47493 4.79076 2.54646 4.47265 2.68554C4.15455 2.82463 3.86878 3.02824 3.63345 3.28349C3.35048 3.61064 3.13486 3.99042 2.99895 4.40106C2.86305 4.8117 2.80952 5.24513 2.84145 5.67649C2.77755 6.5446 3.0561 7.40323 3.61745 8.06849C3.85374 8.32664 4.14176 8.5321 4.46276 8.67149C4.78375 8.81089 5.13052 8.88108 5.48045 8.87749H5.48145ZM19.0435 23.8635C18.0691 23.8763 17.1082 23.6351 16.2555 23.1635C15.4322 22.7042 14.7524 22.0258 14.2915 21.2035C13.7844 20.2676 13.5329 19.2145 13.5625 18.1505C13.5361 17.0926 13.7863 16.046 14.2885 15.1145C14.7482 14.2807 15.4347 13.5942 16.2685 13.1345C17.1269 12.6673 18.0911 12.4286 19.0685 12.4415C20.0317 12.429 20.9816 12.6679 21.8245 13.1345C22.6509 13.5982 23.3309 14.2841 23.7875 15.1145C24.2896 16.046 24.5398 17.0926 24.5135 18.1505C24.5437 19.2139 24.2933 20.2666 23.7875 21.2025C23.3291 22.0239 22.6525 22.7026 21.8325 23.1635C20.9794 23.6353 20.0182 23.8765 19.0435 23.8635V23.8635ZM19.0435 21.3225C19.387 21.3246 19.7273 21.2554 20.0427 21.119C20.3581 20.9827 20.6416 20.7823 20.8755 20.5305C21.4382 19.8723 21.7169 19.0179 21.6505 18.1545C21.7144 17.2889 21.4426 16.432 20.8915 15.7615C20.6589 15.5028 20.3736 15.2969 20.0549 15.1575C19.7362 15.0182 19.3913 14.9486 19.0435 14.9535C18.6963 14.9529 18.3528 15.0245 18.0347 15.1635C17.7165 15.3026 17.4308 15.5062 17.1955 15.7615C16.9125 16.0886 16.6969 16.4684 16.561 16.8791C16.425 17.2897 16.3715 17.7231 16.4035 18.1545C16.337 19.0179 16.6157 19.8723 17.1785 20.5305C17.4178 20.7839 17.7071 20.9847 18.0282 21.1204C18.3492 21.256 18.695 21.3235 19.0435 21.3185V21.3225Z" fill="#6824BE"/>
</svg>
